:FULLY-SPECIFIED
:FORCE-ALL-JOINTS-BE-3DOF
:DEGREES
2650
root -1.48281 15.2617 -28.6428 1268.83 -72.0554 -193.427
lfemur -53.2075 25.7104 -10.3928
ltibia 54.8047 0 0
lfoot 11.0389 9.30096 0
ltoes -20.4837 0 0
rfemur -33.0843 -15.2604 23.1281
rtibia 68.0206 0 0
rfoot -24.6077 -4.86988 0
rtoes -6.27772 0 0
lowerback 18.9602 5.13484 0.310836
upperback -0.0591155 6.81382 0.28591
thorax -10.7607 3.17555 -1.71903
lowerneck -2.29818 10.5296 0.226782
upperneck 5.17958 14.0144 0.231589
head 1.95908 6.99107 0.352483
lclavicle -1.60306e-14 -1.0934e-14 0
lhumerus 59.9834 -25.3487 42.3077
lradius 106.816 0 0
lwrist -38.619 0 0
lhand -39.2409 385.265 0
lfingers 7.12502 0 0
lthumb -12.2371 -665.08 0
rclavicle -1.60306e-14 -1.0934e-14 0
rhumerus 2.06324 78.3632 -73.4524
rradius 105.351 0 0
rwrist -46.7581 0 0
rhand 4.39398 -391.297 0
rfingers 7.12502 0 0
rthumb 29.8198 300.732 0
2651
root -1.60798 15.2469 -28.6148 1273.68 -71.293 -198.576
lfemur -52.7337 26.0924 -9.9687
ltibia 52.6439 0 0
lfoot 12.4177 9.29051 0
ltoes -18.3797 0 0
rfemur -32.4415 -14.9842 22.6864
rtibia 68.1325 0 0
rfoot -24.9507 -4.92609 0
rtoes -6.446 0 0
lowerback 18.8545 5.33634 0.581088
upperback -0.0615421 7.12529 0.183671
thorax -10.6732 3.30795 -2.05158
lowerneck -2.25487 10.7924 0.497775
upperneck 5.42108 14.3591 0.0546014
head 2.0523 7.16257 0.27047
lclavicle -2.01478e-14 -1.10275e-14 0
lhumerus 55.9222 -23.0092 44.7579
lradius 106.562 0 0
lwrist -40.6895 0 0
lhand -39.7327 384.679 0
lfingers 7.12502 0 0
lthumb -12.7116 -665.687 0
rclavicle -2.01478e-14 -1.10275e-14 0
rhumerus -0.421373 78.6133 -74.997
rradius 106.778 0 0
rwrist -50.9516 0 0
rhand 5.05196 -390.811 0
rfingers 7.12502 0 0
rthumb 30.4541 301.256 0
2652
root -1.73314 15.2321 -28.5867 1277.09 -70.5541 -202.255
lfemur -52.0938 26.3851 -9.53686
ltibia 50.8095 0 0
lfoot 13.6374 9.37367 0
ltoes -16.2652 0 0
rfemur -31.9058 -14.8021 22.2837
rtibia 68.2091 0 0
rfoot -25.1984 -5.0076 0
rtoes -6.57298 0 0
lowerback 18.7442 5.49288 0.819744
upperback -0.0627671 7.37287 0.103579
thorax -10.5818 3.4129 -2.3245
lowerneck -2.22118 10.9913 0.732168
upperneck 5.63875 14.6193 -0.0853607
head 2.13821 7.29221 0.204018
lclavicle -2.37383e-14 -1.09652e-14 0
lhumerus 52.2382 -21.0394 46.9703
lradius 106.469 0 0
lwrist -42.1138 0 0
lhand -40.1226 384.266 0
lfingers 7.12502 0 0
lthumb -13.0878 -666.117 0
rclavicle -2.37383e-14 -1.09652e-14 0
rhumerus -2.77345 78.5834 -76.3979
rradius 107.989 0 0
rwrist -54.4598 0 0
rhand 5.45546 -390.318 0
rfingers 7.12502 0 0
rthumb 30.8433 301.769 0
2653
root -1.85831 15.2173 -28.5587 1279.19 -69.8359 -204.606
lfemur -51.311 26.6041 -9.09782
ltibia 49.2753 0 0
lfoot 14.7065 9.53408 0
ltoes -14.153 0 0
rfemur -31.4669 -14.7056 21.9164
rtibia 68.2603 0 0
rfoot -25.3644 -5.11883 0
rtoes -6.66705 0 0
lowerback 18.6289 5.60939 1.02961
upperback -0.0642505 7.56362 0.0441588
thorax -10.488 3.49349 -2.54298
lowerneck -2.19653 11.1326 0.934093
upperneck 5.83518 14.8031 -0.19144
head 2.21766 7.38402 0.151688
lclavicle -2.68243e-14 -1.07646e-14 0
lhumerus 48.8777 -19.3892 48.9814
lradius 106.514 0 0
lwrist -42.9497 0 0
lhand -40.4214 384.01 0
lfingers 7.12502 0 0
lthumb -13.3759 -666.387 0
rclavicle -2.68243e-14 -1.07646e-14 0
rhumerus -5.02394 78.2949 -77.6814
rradius 109.006 0 0
rwrist -57.3645 0 0
rhand 5.6321 -389.821 0
rfingers 7.12502 0 0
rthumb 31.0141 302.27 0
2654
root -1.98347 15.2024 -28.5306 1280.13 -69.1355 -205.769
lfemur -50.4086 26.7654 -8.65216
ltibia 48.0151 0 0
lfoot 15.6332 9.75538 0
ltoes -12.0559 0 0
rfemur -31.1143 -14.6864 21.581
rtibia 68.2961 0 0
rfoot -25.4626 -5.26416 0
rtoes -6.73662 0 0
lowerback 18.5086 5.6908 1.21351
upperback -0.0674522 7.7046 0.00393711
thorax -10.3936 3.5528 -2.7122
lowerneck -2.18031 11.2223 1.10768
upperneck 6.01302 14.9185 -0.266781
head 2.29151 7.44201 0.112035
lclavicle -2.94279e-14 -1.04436e-14 0
lhumerus 45.7873 -18.0084 50.8278
lradius 106.674 0 0
lwrist -43.2553 0 0
lhand -40.6395 383.894 0
lfingers 7.12502 0 0
lthumb -13.5863 -666.514 0
rclavicle -2.94279e-14 -1.04436e-14 0
rhumerus -7.2038 77.7691 -78.8736
rradius 109.853 0 0
rwrist -59.748 0 0
rhand 5.60952 -389.32 0
rfingers 7.12502 0 0
rthumb 30.993 302.76 0
2655
root -2.10864 15.1876 -28.5026 1280.05 -68.45 -205.886
lfemur -49.4098 26.8845 -8.20043
ltibia 47.0028 0 0
lfoot 16.4259 10.0212 0
ltoes -9.98679 0 0
rfemur -30.8373 -14.7361 21.2738
rtibia 68.3264 0 0
rfoot -25.5064 -5.448 0
rtoes -6.7901 0 0
lowerback 18.3828 5.74203 1.37423
upperback -0.0738324 7.80288 -0.01856
thorax -10.3003 3.59391 -2.83734
lowerneck -2.17193 11.2666 1.25707
upperneck 6.17486 14.9737 -0.314526
head 2.36059 7.47021 0.0836192
lclavicle -3.15711e-14 -1.00196e-14 0
lhumerus 42.9135 -16.8469 52.5462
lradius 106.926 0 0
lwrist -43.0887 0 0
lhand -40.7877 383.903 0
lfingers 7.12502 0 0
lthumb -13.7291 -666.515 0
rclavicle -3.15711e-14 -1.00196e-14 0
rhumerus -9.34397 77.0274 -80.001
rradius 110.552 0 0
rwrist -61.692 0 0
rhand 5.41537 -388.819 0
rfingers 7.12502 0 0
rthumb 30.8067 303.239 0
2656
root -2.2338 15.1728 -28.4745 1279.08 -67.7767 -205.097
lfemur -48.3378 26.9774 -7.74318
ltibia 46.212 0 0
lfoot 17.0929 10.3152 0
ltoes -7.95835 0 0
rfemur -30.6254 -14.8463 20.9911
rtibia 68.3611 0 0
rfoot -25.5095 -5.67475 0
rtoes -6.8359 0 0
lowerback 18.2515 5.76802 1.51459
upperback -0.084851 7.8655 -0.0248065
thorax -10.2097 3.6199 -2.92361
lowerneck -2.1708 11.2717 1.38638
upperneck 6.32334 14.9765 -0.337818
head 2.42578 7.47264 0.0649974
lclavicle -3.3276e-14 -9.51036e-15 0
lhumerus 40.2027 -15.8544 54.1731
lradius 107.25 0 0
lwrist -42.5078 0 0
lhand -40.8767 384.019 0
lfingers 7.12502 0 0
lthumb -13.8148 -666.407 0
rclavicle -3.3276e-14 -9.51036e-15 0
rhumerus -11.4754 76.091 -81.0896
rradius 111.127 0 0
rwrist -63.2787 0 0
rhand 5.07727 -388.318 0
rfingers 7.12502 0 0
rthumb 30.4818 303.709 0
2657
root -2.35897 15.158 -28.4465 1277.38 -67.1126 -203.545
lfemur -47.2159 27.0597 -7.28097
ltibia 45.6166 0 0
lfoot 17.6426 10.6209 0
ltoes -5.98342 0 0
rfemur -30.4683 -15.0086 20.7295
rtibia 68.4102 0 0
rfoot -25.4856 -5.94882 0
rtoes -6.88241 0 0
lowerback 18.1143 5.77368 1.63741
upperback -0.101968 7.89953 -0.0162762
thorax -10.1236 3.63384 -2.97618
lowerneck -2.17631 11.2437 1.49976
upperneck 6.46107 14.9352 -0.339802
head 2.48791 7.45332 0.0547276
lclavicle -3.45648e-14 -8.93359e-15 0
lhumerus 37.6014 -14.9809 55.7452
lradius 107.621 0 0
lwrist -41.5707 0 0
lhand -40.9171 384.227 0
lfingers 7.12502 0 0
lthumb -13.8536 -666.205 0
rclavicle -3.45648e-14 -8.93359e-15 0
rhumerus -13.6291 74.9812 -82.1658
rradius 111.601 0 0
rwrist -64.5901 0 0
rhand 4.62286 -387.819 0
rfingers 7.12502 0 0
rthumb 30.0448 304.169 0
2658
root -2.48413 15.1431 -28.4184 1275.08 -66.4549 -201.37
lfemur -46.0672 27.1471 -6.81437
ltibia 45.1904 0 0
lfoot 18.0834 10.9221 0
ltoes -4.07478 0 0
rfemur -30.3553 -15.2147 20.4853
rtibia 68.4834 0 0
rfoot -25.4483 -6.2746 0
rtoes -6.93805 0 0
lowerback 17.971 5.76396 1.74548
upperback -0.126644 7.91203 0.00555695
thorax -10.0436 3.63882 -3.00025
lowerneck -2.18787 11.1889 1.60133
upperneck 6.59067 14.8579 -0.323619
head 2.54783 7.41627 0.0513679
lclavicle -3.54595e-14 -8.30691e-15 0
lhumerus 35.056 -14.1761 57.2991
lradius 108.018 0 0
lwrist -40.3353 0 0
lhand -40.9194 384.51 0
lfingers 7.12502 0 0
lthumb -13.8557 -665.927 0
rclavicle -3.54595e-14 -8.30691e-15 0
rhumerus -15.8359 73.7194 -83.2559
rradius 111.996 0 0
rwrist -65.7081 0 0
rhand 4.07979 -387.324 0
rfingers 7.12502 0 0
rthumb 29.5224 304.619 0
2659
root -2.6093 15.1283 -28.3904 1272.32 -65.8007 -198.712
lfemur -44.9151 27.2555 -6.34392
ltibia 44.9072 0 0
lfoot 18.4234 11.2023 0
ltoes -2.24524 0 0
rfemur -30.2759 -15.4561 20.2549
rtibia 68.5908 0 0
rfoot -25.4113 -6.65651 0
rtoes -7.01121 0 0
lowerback 17.8214 5.74377 1.84163
upperback -0.160338 7.91005 0.0392191
thorax -9.97137 3.63791 -3.001
lowerneck -2.20489 11.1132 1.69523
upperneck 6.71476 14.7525 -0.292414
head 2.60641 7.36552 0.0534761
lclavicle -3.59823e-14 -7.64799e-15 0
lhumerus 32.5132 -13.3899 58.8714
lradius 108.419 0 0
lwrist -38.8597 0 0
lhand -40.8945 384.851 0
lfingers 7.12502 0 0
lthumb -13.8314 -665.59 0
rclavicle -3.59823e-14 -7.64799e-15 0
rhumerus -18.1268 72.3269 -84.386
rradius 112.337 0 0
rwrist -66.7148 0 0
rhand 3.47569 -386.834 0
rfingers 7.12502 0 0
rthumb 28.9411 305.061 0
2660
root -2.73446 15.1135 -28.3623 1269.24 -65.1472 -195.715
lfemur -43.7826 27.4006 -5.87018
ltibia 44.7407 0 0
lfoot 18.6712 11.4452 0
ltoes -0.507593 0 0
rfemur -30.2196 -15.7245 20.0347
rtibia 68.7422 0 0
rfoot -25.3881 -7.09893 0
rtoes -7.11031 0 0
lowerback 17.6652 5.71805 1.92865
upperback -0.20451 7.90066 0.0832364
thorax -9.90868 3.63421 -2.98361
lowerneck -2.22677 11.0229 1.78559
upperneck 6.83596 14.6271 -0.24933
head 2.66449 7.30508 0.0596102
lclavicle -3.61552e-14 -6.97448e-15 0
lhumerus 29.9192 -12.5722 60.4987
lradius 108.8 0 0
lwrist -37.2018 0 0
lhand -40.8529 385.235 0
lfingers 7.12502 0 0
lthumb -13.7911 -665.21 0
rclavicle -3.61552e-14 -6.97448e-15 0
rhumerus -20.5328 70.8249 -85.5824
rradius 112.647 0 0
rwrist -67.6921 0 0
rhand 2.83818 -386.352 0
rfingers 7.12502 0 0
rthumb 28.3275 305.494 0
2661
root -2.85963 15.0987 -28.3343 1265.98 -64.4916 -192.518
lfemur -42.6932 27.5982 -5.39371
ltibia 44.6648 0 0
lfoot 18.835 11.6344 0
ltoes 1.12538 0 0
rfemur -30.1759 -16.0115 19.821
rtibia 68.9475 0 0
rfoot -25.3924 -7.60628 0
rtoes -7.24374 0 0
lowerback 17.5022 5.69171 2.00936
upperback -0.260621 7.89091 0.136135
thorax -9.85718 3.63077 -2.95328
lowerneck -2.25291 10.9242 1.87654
upperneck 6.95689 14.4899 -0.19751
head 2.72293 7.23898 0.068328
lclavicle -3.60003e-14 -6.30404e-15 0
lhumerus 27.2207 -11.6726 62.2177
lradius 109.14 0 0
lwrist -35.4197 0 0
lhand -40.8053 385.646 0
lfingers 7.12502 0 0
lthumb -13.7449 -664.803 0
rclavicle -3.60003e-14 -6.30404e-15 0
rhumerus -23.0848 69.2349 -86.8714
rradius 112.947 0 0
rwrist -68.7221 0 0
rhand 2.19492 -385.879 0
rfingers 7.12502 0 0
rthumb 27.7083 305.92 0
2662
root -2.98479 15.0838 -28.3062 1262.69 -63.8309 -189.262
lfemur -41.6699 27.8639 -4.91507
ltibia 44.6533 0 0
lfoot 18.9232 11.7536 0
ltoes 2.64087 0 0
rfemur -30.1343 -16.3087 19.6103
rtibia 69.2168 0 0
rfoot -25.4379 -8.18295 0
rtoes -7.41993 0 0
lowerback 17.3321 5.6697 2.08656
upperback -0.330131 7.88785 0.196441
thorax -9.81855 3.6307 -2.9152
lowerneck -2.28271 10.8232 1.97221
upperneck 7.08016 14.3488 -0.140098
head 2.78257 7.17123 0.0781875
lclavicle -3.55397e-14 -5.65435e-15 0
lhumerus 24.3641 -10.6412 64.065
lradius 109.416 0 0
lwrist -33.5714 0 0
lhand -40.7624 386.065 0
lfingers 7.12502 0 0
lthumb -13.7032 -664.387 0
rclavicle -3.55397e-14 -5.65435e-15 0
rhumerus -25.8138 67.5781 -88.2793
rradius 113.262 0 0
rwrist -69.8868 0 0
rhand 1.57354 -385.417 0
rfingers 7.12502 0 0
rthumb 27.11 306.338 0
2663
root -3.10996 15.069 -28.2782 1259.51 -63.1623 -186.09
lfemur -40.736 28.2135 -4.43481
ltibia 44.6799 0 0
lfoot 18.9441 11.7864 0
ltoes 4.02608 0 0
rfemur -30.0843 -16.6076 19.399
rtibia 69.5598 0 0
rfoot -25.5383 -8.83334 0
rtoes -7.64726 0 0
lowerback 17.1548 5.65694 2.16307
upperback -0.414499 7.89856 0.26268
thorax -9.79448 3.63705 -2.87455
lowerneck -2.31559 10.726 2.07674
upperneck 7.2084 14.212 -0.0802362
head 2.84426 7.10587 0.0877465
lclavicle -3.47956e-14 -5.04304e-15 0
lhumerus 21.2958 -9.42764 66.0771
lradius 109.606 0 0
lwrist -31.7149 0 0
lhand -40.7347 386.479 0
lfingers 7.12502 0 0
lthumb -13.6763 -663.978 0
rclavicle -3.47956e-14 -5.04304e-15 0
rhumerus -28.7506 65.8758 -89.8322
rradius 113.615 0 0
rwrist -71.2681 0 0
rhand 1.00166 -384.968 0
rfingers 7.12502 0 0
rthumb 26.5592 306.748 0
